PathFileType	4	(X/Y/Z)	Patient4_TMGait_0pt2_01_left_14.trc.trc
DataRate	CameraRate	NumFrames	NumMarkers	Units	OrigDataRate	OrigDataStartFrame	OrigNumFrames
43.613707165109	43.613707165109	4	33	mm	43.613707165109	124	       141
Frame#	Time	Sacral			L.Shoulder			Chest			R.Shoulder			Neck			R.ASIS			L.ASIS			R.Thigh.Superior			R.Thigh.Lateral			R.Thigh.Inferior			R.Patella			L.Thigh.Superior			L.Thigh.Lateral			L.Thigh.Inferior			L.Patella			L.Shank.Superior			L.Shank.Lateral			L.Shank.Inferior			R.Shank.Superior			R.Shank.Lateral			R.Shank.Inferior			R.Heel			R.Midfoot.Superior			R.Midfoot.Lateral			R.Toe			L.Heel			L.Midfoot.Lateral			L.Midfoot.Superior			L.Toe			L.Elbow			L.Wrist			R.Elbow			R.Wrist			
		X1	Y1	Z1	X2	Y2	Z2	X3	Y3	Z3	X4	Y4	Z4	X5	Y5	Z5	X6	Y6	Z6	X7	Y7	Z7	X8	Y8	Z8	X9	Y9	Z9	X10	Y10	Z10	X11	Y11	Z11	X12	Y12	Z12	X13	Y13	Z13	X14	Y14	Z14	X15	Y15	Z15	X16	Y16	Z16	X17	Y17	Z17	X18	Y18	Z18	X19	Y19	Z19	X20	Y20	Z20	X21	Y21	Z21	X22	Y22	Z22	X23	Y23	Z23	X24	Y24	Z24	X25	Y25	Z25	X26	Y26	Z26	X27	Y27	Z27	X28	Y28	Z28	X29	Y29	Z29	X30	Y30	Z30	X31	Y31	Z31	X32	Y32	Z32	X33	Y33	Z33	

124	34.730214285714	672.058243332309	1002.575495659990	582.590743585549	799.113030712986	1425.926370362491	362.101684137143	937.794608278327	1361.174837541484	495.847033972617	896.009503773740	1435.732425384829	682.720327668134	811.728628713607	1489.087752804541	517.278500087731	917.580373407825	929.409640176238	647.480199329851	850.626119437589	962.459866257693	383.047596730327	927.986197315277	720.710461464634	601.008150051215	848.742634510227	612.680769729884	670.046162084176	901.247293435603	559.877691277149	574.390906811860	891.194910048101	468.473543212624	577.949963938089	926.787529095300	765.536477766794	399.954427278290	858.252648868226	642.306690679738	327.150071049593	958.838905006219	578.254660974184	382.199638298999	975.682786975479	513.349597584526	380.011112308500	961.203044408691	441.746910950744	363.780647286094	895.048801705790	317.479892090754	299.441513537001	976.012368683206	211.901007539026	352.736967886334	845.955992074668	384.127571135722	586.895955459065	764.769408710881	291.677415106560	655.064860057861	777.028850201109	195.305352386459	584.808118304037	613.412339146991	44.418009117777	566.961055734456	788.124109479278	95.735501576168	592.210948906126	700.671834146868	37.142144822197	636.414341653063	908.165071996737	40.246488163923	614.328046428690	883.390561159674	35.065877113455	370.160522297737	964.925514299860	41.840584735346	297.919267925863	1034.522723750004	116.442234520399	330.455831847984	1169.894945701658	85.544309378357	315.393073203287	666.432185006063	1095.157183248986	294.621374629441	599.502751824438	845.946522245243	328.466859481489	1116.819546781690	1184.040573513628	784.174115079910	1343.971685646003	1270.927908811963	703.539234019989	
125	34.753142857143	673.091909336825	1001.915918689312	579.472334342719	799.941559130721	1425.181284814572	358.749312208866	938.586193317321	1360.505767840271	492.680621909058	896.497468429688	1435.110528880372	679.357438601240	812.215875844839	1488.444206915952	514.040444947687	918.448736020425	928.889468525374	644.795857864403	851.733331650138	961.468192980816	380.286161327178	927.553677389376	719.698725297383	599.216323284396	847.060037716404	612.386487294775	668.415332449314	899.361423031742	558.849539531570	573.264699248392	888.329842832695	467.526995980539	577.051999332569	926.791622181192	763.403776377031	396.861973610992	856.772899510494	640.449245442197	325.067503607846	957.494525480938	576.281598762635	379.667583847723	972.960115366393	511.357977883492	377.866489678729	959.044504398330	440.018607769688	361.745510971455	892.744229122623	315.607181888311	298.569664668292	974.058032272389	210.491508129322	351.967264864977	842.761332324441	383.519107100040	586.178709580627	760.954321739762	291.659107756646	654.540117947298	772.909633097917	195.032388720665	584.576731037843	608.848651677014	44.409691189096	566.898885371290	783.574116009946	95.719937677602	592.205454823092	696.092479000598	37.128121498045	636.385564430232	903.589240570852	40.209123767871	614.368389000526	880.986561772693	35.530141390730	370.838677033375	962.123438361431	40.782335232745	298.115132785256	1032.710921395707	114.324533616180	330.040049757052	1167.397898969125	81.506096828985	314.522450548680	668.584855164191	1093.964109781763	290.817028597003	602.163293394188	844.444536634417	323.967867519298	1120.400459290132	1186.879382981025	779.298941396388	1343.904069408811	1280.714871093338	696.982749132645	
126	34.776071428571	674.332103582087	1001.166913866989	576.086490204578	800.890889786901	1424.279773417914	355.023525418168	939.474383963357	1359.808975274382	489.223667840297	896.987225498222	1434.530441901521	675.676166992095	812.762125370589	1487.730870798986	510.407857520296	919.507595838975	928.375107706455	641.960673939744	853.156323094165	960.448586524149	377.344450237960	927.474316530716	718.679736568769	597.317039731537	845.693774863372	612.051644347158	666.574071303753	897.877511514225	557.803375612006	571.972307642377	885.906277107700	466.501948144423	575.980510561571	927.455028302315	761.512951215862	394.124927973868	856.520014329078	638.784242033566	322.997128497610	957.148890220254	574.492689638893	377.505389688648	971.373565092044	509.375986031973	375.931916065741	957.677036214899	438.184279936249	359.888331583290	890.768685322754	313.936164809361	297.620985403756	971.788278579512	208.852543946815	351.223727263568	839.879501272389	382.867462103256	585.319224325665	757.382097513413	291.715195017404	653.961673590009	768.934862300891	194.788751659480	584.308958819296	604.321241140791	44.521306071574	566.840938945300	779.083461269909	95.728691634308	592.217042006080	691.546464744067	37.173503565627	636.356187419524	899.040354873162	40.132842887579	614.418549504712	877.317396149793	36.079963273266	371.428516806832	958.083179173585	39.592053818943	298.200031454358	1030.034659275688	111.743792994726	329.604228824148	1163.939112041580	76.458268152988	313.567459237829	671.323820427706	1092.414220411312	286.446773363501	605.992038518820	842.442811475955	318.781870182287	1123.372961086053	1189.284667873764	774.622536034763	1343.687056098811	1288.765662376923	690.861956755359	
127	34.799000000000	675.751874622989	1000.429930304194	572.415215923142	801.950770538128	1423.338356529649	350.976517382007	940.462032864158	1359.172881308900	485.497359710664	897.517526707530	1434.065997143523	671.711339436917	813.381173577391	1487.040801305994	506.437073827763	920.727087825876	927.927696626018	638.945817629689	854.879304269564	959.526082890137	374.200470353052	927.658222093997	717.707976821673	595.282663786736	844.562881898307	611.752012122111	664.535221602110	896.694877167698	556.794922876913	570.523418443922	883.824543840775	465.475073820192	574.759108747329	928.784830003109	760.004637258042	391.661101571671	857.474146250906	637.402913211005	320.881622151324	957.807871709720	572.986010140078	375.627159834469	970.977090560478	507.543400116770	374.199314437686	957.202720280677	436.378006532976	358.226791849144	889.387998033665	312.531422895595	296.539726337591	969.494980773407	207.113441591866	350.526417586184	837.235032804620	382.241659769873	584.334803215057	754.000619751938	291.900507271915	653.339159808649	765.079496043914	194.625991778259	584.011581060495	599.828563472804	44.805879065621	566.789872159196	774.656034199165	95.773235037815	592.248418314634	687.030789551797	37.308519489252	636.325965508965	894.510666396290	40.010498807962	614.477769505388	872.869054524996	36.644889328393	371.855206418008	953.329046478736	38.378864465349	298.161044339964	1026.853859773770	108.941848709590	329.199695536806	1159.946794477409	70.903479169632	312.667917262444	674.546695810360	1090.675797493703	281.584400613218	610.842005293707	840.129255762954	312.997489889565	1125.842383777047	1191.322833942264	770.107888317355	1343.508936387553	1295.224883491935	685.138212673891	
